<svg width="34" height="13" viewBox="0 0 34 13" fill="none" xmlns="http://www.w3.org/2000/svg">
<path d="M4.47559 11.1641C6.45117 11.1641 7.90039 9.94727 7.90039 8.2998V8.28613C7.90039 6.88477 6.92285 5.98926 5.4873 5.86621V5.83887C6.71777 5.5791 7.5791 4.74512 7.5791 3.52832V3.51465C7.5791 2.01758 6.3418 0.97168 4.46191 0.97168C2.61621 0.97168 1.34473 2.04492 1.1875 3.65137L1.18066 3.71973H2.36328L2.37012 3.65137C2.47266 2.65332 3.2998 2.03809 4.46191 2.03809C5.66504 2.03809 6.3418 2.63281 6.3418 3.66504V3.67871C6.3418 4.66309 5.52148 5.3877 4.3457 5.3877H3.16309V6.42676H4.40039C5.78125 6.42676 6.64941 7.10352 6.64941 8.31348V8.32715C6.64941 9.37305 5.76758 10.0977 4.47559 10.0977C3.16309 10.0977 2.27441 9.42773 2.17188 8.45703L2.16504 8.38867H0.982422L0.989258 8.4707C1.11914 10.0293 2.43848 11.1641 4.47559 11.1641ZM12.7471 12.9482V11H18.2637V12.9482H19.3711V10.0156H18.2432V3.89062H13.3486L13.0752 7.83496C13.0068 8.79199 12.7539 9.67383 12.2344 10.0156H11.6396V12.9482H12.7471ZM17.0537 10.0156H13.5742V9.98828C13.9297 9.53027 14.1143 8.75781 14.1758 7.8623L14.3945 4.875H17.0537V10.0156ZM25.1064 11H26.2959V3.89062H25.1064V6.82324H21.627V3.89062H20.4375V11H21.627V7.80762H25.1064V11ZM31.9766 11H33.166V3.89062H30.5205C28.8867 3.89062 27.834 4.78613 27.834 6.24219V6.25586C27.834 7.22656 28.4424 7.96484 29.4473 8.25195L27.4648 11H28.8389L30.6436 8.4707H31.9766V11ZM30.5273 7.48633C29.6113 7.48633 29.0508 6.9668 29.0508 6.23535V6.22168C29.0508 5.37402 29.6045 4.875 30.5273 4.875H31.9766V7.48633H30.5273Z" fill="#005FF8"/>
</svg>
